<?xml version="1.0" encoding="UTF-8"?>
<svg id="Layer_1" xmlns="http://www.w3.org/2000/svg" version="1.1" viewBox="0 0 841.89 256.72">
  <!-- Generator: Adobe Illustrator 29.8.4, SVG Export Plug-In . SVG Version: 2.1.1 Build 6)  -->
  <defs>
    <style>
      .st0 {
        stroke: #231f20;
        stroke-linecap: round;
        stroke-miterlimit: 10;
        stroke-width: 1.44px;
      }

      .st0, .st1 {
        fill: none;
      }

      .st2 {
        fill: #231f20;
      }

      .st3 {
        fill: #fff;
      }
    </style>
  </defs>
  <rect class="st1" x="283.53" y="-248.82" width="276.47" height="774.11" transform="translate(283.53 560) rotate(-90)"/>
  <g>
    <path class="st2" d="M94.17,110.93c0,2.89-1.93,5.36-5.77,7.43-3.85,2.07-8.8,3.1-14.86,3.1-9.81,0-17.75-3.17-23.81-9.52-5.97-6.54-8.95-15.2-8.95-25.97s3.13-19.43,9.38-25.97c6.25-6.54,14.09-9.81,23.52-9.81,2.79,0,5.39.26,7.79.79,2.4.53,4.47,1.25,6.21,2.16s3.1,1.97,4.11,3.17c1.01,1.2,1.51,2.48,1.51,3.82,0,1.54-.53,2.94-1.59,4.18-1.06,1.25-2.36,1.88-3.9,1.88-1.15,0-3.8-.62-7.94-1.88-2.12-.67-4.14-1.01-6.06-1.01-5.48,0-9.88,2.02-13.2,6.06-3.32,4.04-4.98,9.67-4.98,16.88s1.66,12.39,4.98,16.38c3.32,3.99,7.86,5.99,13.64,5.99,2.5,0,5.34-.58,8.51-1.73,3.08-1.25,5.15-1.88,6.21-1.88,1.35,0,2.55.57,3.61,1.73,1.06,1.15,1.59,2.55,1.59,4.18Z"/>
    <polygon class="st2" points="97.93 57.71 102.86 66.95 783.69 66.12 800.25 57.71 97.93 57.71"/>
    <path class="st2" d="M169.87,191.36c0,6.33-2.23,11.43-6.68,15.28-4.45,3.85-10.39,5.78-17.83,5.78-5.78,0-10.6-.87-14.46-2.62-3.85-1.74-5.78-3.99-5.78-6.75,0-3.85,2.11-5.78,6.33-5.78,1.47,0,3.86.6,7.16,1.79,3.67,1.1,6.65,1.65,8.95,1.65s4.41-.78,6.06-2.34c1.65-1.56,2.48-3.44,2.48-5.65,0-2.75-1.06-4.91-3.17-6.47-1.38-1.1-4.45-2.39-9.23-3.85-6.06-1.83-10.51-3.99-13.36-6.47-2.94-2.75-4.4-6.52-4.4-11.29,0-5.87,2.11-10.65,6.33-14.32,4.22-3.85,9.73-5.78,16.52-5.78,4.96,0,8.99.83,12.12,2.48,3.12,1.65,4.68,3.77,4.68,6.33,0,3.49-1.88,5.23-5.65,5.23-.83,0-2.71-.36-5.64-1.1-2.94-.74-4.96-1.1-6.06-1.1-2.66,0-4.75.62-6.27,1.86-1.51,1.24-2.27,2.87-2.27,4.89,0,2.66,1.7,4.73,5.09,6.2.64.28,1.58.65,2.82,1.1,1.24.46,2.82,1.01,4.75,1.65,5.87,1.93,10.26,4.43,13.15,7.5,2.89,3.08,4.34,7,4.34,11.77Z"/>
    <path class="st2" d="M139.23,157.33c0,1.66-2.72,1.27-3.87,2.33-1.16,1.06-1.24,2.12-2.9,2.12-1.3,0-3.25.67-4.36-.06-1.11-.74-6.87-8.11-8.26-9.77l-19.58-24.7v23.61c0,6.26-2.07,10.73-6.2,10.73s-6.2-3.99-6.2-10.24v-50.87c0-3.49.62-5.95,1.86-7.38,1.24-1.42,3.65-2.14,7.23-2.14h11.84c7.8,0,13.74,1.77,17.83,5.31,4.08,3.54,6.13,8.35,6.13,14.42,0,4.69-1.41,8.51-4.23,11.46-2.82,2.94-7.06,4.87-12.71,5.79l13.33,15.04c2.68,2.95,10.08,11.96,10.08,14.35ZM119.26,111.89c0-6.06-3.54-9.09-10.62-9.09h-8.38v18.45h8.24c7.17,0,10.76-3.12,10.76-9.37Z"/>
    <polygon class="st2" points="245.55 119.68 236.67 119.68 238.59 109.55 247.11 109.55 245.55 119.68"/>
    <polygon class="st2" points="257.55 119.68 248.67 119.68 250.6 109.55 259.11 109.55 257.55 119.68"/>
    <polygon class="st2" points="233.89 119.68 225.01 119.68 226.94 109.55 235.45 109.55 233.89 119.68"/>
    <polygon class="st2" points="221.59 119.11 147.64 119.11 146.14 110.12 222.31 110.12 221.59 119.11"/>
    <g>
      <path class="st2" d="M288.79,112.76c0,1.38-.28,2.67-.84,3.88-.56,1.21-1.33,2.27-2.31,3.17-.98.91-2.12,1.61-3.42,2.12-1.3.51-2.68.76-4.13.76s-2.87-.25-4.15-.76-2.42-1.21-3.39-2.12c-.98-.9-1.75-1.96-2.31-3.17-.56-1.21-.84-2.51-.84-3.88v-14.83h5.27v14.83c0,1.38.52,2.55,1.55,3.53,1.03.98,2.33,1.47,3.88,1.47.76,0,1.47-.14,2.12-.41s1.22-.64,1.71-1.09c.49-.45.88-.98,1.17-1.57.29-.6.43-1.24.43-1.93v-14.83h5.27v14.83Z"/>
      <path class="st2" d="M312.09,113.9c0,1.48-.28,2.78-.84,3.88s-1.3,2.02-2.23,2.74c-.92.72-1.96,1.27-3.1,1.65-1.14.38-2.27.57-3.39.57s-2.17-.16-3.26-.49c-1.09-.33-2.07-.84-2.96-1.55-.89-.7-1.66-1.61-2.31-2.71s-1.09-2.44-1.3-3.99l4.89-1.63c.29,2.17.88,3.63,1.76,4.37.89.74,1.93,1.11,3.12,1.11,1.3,0,2.39-.36,3.26-1.09.87-.72,1.3-1.68,1.3-2.88,0-.54-.22-1.01-.65-1.38-.43-.38-1.14-.72-2.12-1.01-.98-.25-2.1-.5-3.37-.73-1.27-.24-2.47-.59-3.61-1.06-1.14-.47-2.11-1.09-2.91-1.85-.79-.76-1.19-1.79-1.19-3.09,0-1.23.27-2.32.82-3.26.54-.94,1.25-1.71,2.12-2.31.87-.6,1.83-1.05,2.88-1.36,1.05-.31,2.08-.46,3.09-.46.94,0,1.89.11,2.85.33.96.22,1.88.59,2.77,1.11s1.7,1.22,2.44,2.09c.74.87,1.37,1.96,1.88,3.26l-4.73,1.74c-.61-1.45-1.35-2.42-2.2-2.93s-1.84-.76-2.96-.76c-1.3,0-2.28.26-2.93.79s-.98,1.1-.98,1.71c0,.4.22.66.65.79s.96.28,1.57.46c1.16.29,2.42.58,3.78.87,1.36.29,2.62.7,3.78,1.25,1.16.55,2.12,1.27,2.9,2.17.78.91,1.17,2.12,1.17,3.64Z"/>
      <path class="st2" d="M292.1,94.68v-4.62h19.99v4.62h-19.99Z"/>
      <path class="st2" d="M338.16,110.64v1.36c0,1.52-.29,2.94-.87,4.24-.58,1.3-1.36,2.43-2.34,3.39-.98.96-2.14,1.71-3.48,2.26-1.34.54-2.77.81-4.29.81s-2.95-.27-4.29-.81c-1.34-.55-2.5-1.29-3.48-2.26-.98-.96-1.76-2.09-2.33-3.39-.58-1.3-.87-2.72-.87-4.24v-14.06h5.27v14.12c0,1.66.52,3.02,1.55,4.07,1.03,1.05,2.42,1.58,4.15,1.58s3.12-.55,4.15-1.63c1.03-1.09,1.55-2.44,1.55-4.08v-1.36h-3.26c-1.27,0-2.32-.41-3.15-1.25-.83-.83-1.25-1.83-1.25-2.98v-2.88h4.89v2.28h2.77v-7.87h5.27v7.87h2.01v4.83h-2.01Z"/>
      <path class="st2" d="M327.41,94.68c-1.3,0-2.4-.46-3.29-1.39-.89-.92-1.33-2-1.33-3.23v-3.04h4.56v3.04h12.87v4.62h-12.82Z"/>
      <path class="st2" d="M363.69,122.38h-5.27v-15.7c0-1.38-.45-2.44-1.36-3.18-.91-.74-1.99-1.11-3.26-1.11-.83,0-1.62.16-2.36.49-.74.33-1.4.77-1.98,1.34-.58.56-1.04,1.2-1.39,1.92-.34.73-.52,1.49-.52,2.28v13.96h-5.27v-24.5h5.27v2.28c1.99-1.78,4.09-2.66,6.3-2.66,1.23,0,2.43.19,3.61.57,1.18.38,2.23.96,3.15,1.74.92.78,1.67,1.74,2.23,2.88.56,1.14.84,2.47.84,3.99v15.7Z"/>
      <path class="st2" d="M398.88,103.53c.36.51.66,1.09.9,1.74s.35,1.34.35,2.07v7.12c0,1.16-.24,2.24-.7,3.23-.47,1-1.12,1.87-1.93,2.61-.82.75-1.76,1.34-2.82,1.77-1.07.43-2.22.65-3.45.65s-2.38-.22-3.45-.65c-1.07-.43-2-1.02-2.8-1.77-.8-.74-1.43-1.61-1.9-2.61-.47-.99-.7-2.07-.7-3.23,0-1.81.37-3.21,1.11-4.19.74-.98,1.56-1.76,2.45-2.36.88-.6,1.7-1.13,2.44-1.61s1.11-1.1,1.11-1.9c0-.43-.09-.83-.27-1.19l-3.04,2.5-6.19-4.67,3.04-3.69,3.04,2.17,2.66-2.23c2.5.98,4.22,2.32,5.16,4.02l5.48-5.81,3.75,3.47-4.24,4.56ZM389.49,111.46c-.58.4-1.04.82-1.38,1.25-.34.43-.52,1.01-.52,1.74,0,.9.35,1.69,1.06,2.36.7.67,1.57,1.01,2.58,1.01s1.92-.33,2.61-1.01c.69-.67,1.03-1.47,1.03-2.42v-7.01c0-.36-.11-.79-.33-1.3-.15.69-.38,1.29-.71,1.79-.33.51-.7.96-1.14,1.36-.43.4-.92.77-1.47,1.11-.54.34-1.12.72-1.74,1.11Z"/>
      <path class="st2" d="M380.47,94.68v-4.62h15.37v-3.26h4.62v7.87h-19.99Z"/>
      <path class="st2" d="M428.21,110.1c0,1.7-.28,3.31-.84,4.83-.56,1.52-1.37,2.87-2.42,4.04-1.05,1.18-2.32,2.11-3.8,2.8-1.48.69-3.13,1.03-4.94,1.03s-3.46-.33-4.94-1.01c-1.48-.67-2.76-1.58-3.83-2.74s-1.9-2.51-2.5-4.05c-.6-1.54-.9-3.17-.9-4.91,0-.11,0-.24.03-.38s.05-.49.08-1.03h12.98v4.78h-7.33c.51,1.3,1.32,2.37,2.44,3.21,1.12.83,2.45,1.25,3.97,1.25.98,0,1.89-.2,2.74-.6.85-.4,1.59-.94,2.23-1.63.63-.68,1.12-1.51,1.47-2.47s.52-2,.52-3.12-.17-2.22-.52-3.18-.82-1.79-1.44-2.5c-.62-.71-1.35-1.25-2.2-1.63-.85-.38-1.78-.57-2.8-.57-1.38,0-2.67.41-3.88,1.22s-2.24,2.15-3.07,3.99l-4.73-1.9c1.16-2.61,2.74-4.63,4.75-6.06,2.01-1.43,4.32-2.15,6.93-2.15,1.88,0,3.57.36,5.05,1.06s2.74,1.65,3.78,2.82c1.03,1.18,1.82,2.53,2.36,4.08.54,1.54.81,3.14.81,4.81Z"/>
      <path class="st2" d="M447.87,122.38h-5.27v-15.26c0-3.15-1.52-4.73-4.56-4.73-.76,0-1.5.15-2.23.46-.72.31-1.59.95-2.61,1.93l-3.53-3.53c1.52-1.48,2.93-2.46,4.24-2.94,1.3-.47,2.7-.7,4.18-.7,1.67,0,3.12.24,4.35.74,1.23.49,2.24,1.16,3.04,2.01.79.85,1.39,1.83,1.79,2.93.39,1.11.59,2.26.59,3.45v15.64Z"/>
      <path class="st2" d="M471.17,113.9c0,1.48-.28,2.78-.84,3.88-.56,1.1-1.3,2.02-2.23,2.74-.92.72-1.96,1.27-3.09,1.65-1.14.38-2.27.57-3.39.57s-2.17-.16-3.26-.49c-1.09-.33-2.08-.84-2.96-1.55-.88-.7-1.66-1.61-2.31-2.71-.65-1.1-1.09-2.44-1.3-3.99l4.89-1.63c.29,2.17.88,3.63,1.76,4.37.88.74,1.93,1.11,3.12,1.11,1.3,0,2.39-.36,3.26-1.09.87-.72,1.3-1.68,1.3-2.88,0-.54-.22-1.01-.65-1.38-.43-.38-1.14-.72-2.11-1.01-.98-.25-2.1-.5-3.37-.73-1.27-.24-2.47-.59-3.61-1.06-1.14-.47-2.11-1.09-2.91-1.85-.79-.76-1.19-1.79-1.19-3.09,0-1.23.27-2.32.81-3.26.55-.94,1.25-1.71,2.12-2.31.87-.6,1.83-1.05,2.88-1.36,1.05-.31,2.08-.46,3.1-.46.94,0,1.89.11,2.85.33s1.88.59,2.77,1.11c.89.52,1.71,1.22,2.45,2.09.74.87,1.37,1.96,1.87,3.26l-4.72,1.74c-.62-1.45-1.35-2.42-2.2-2.93-.85-.51-1.83-.76-2.96-.76-1.3,0-2.28.26-2.94.79-.65.52-.98,1.1-.98,1.71,0,.4.22.66.65.79s.96.28,1.57.46c1.16.29,2.42.58,3.77.87,1.36.29,2.62.7,3.78,1.25,1.16.55,2.12,1.27,2.9,2.17.78.91,1.17,2.12,1.17,3.64Z"/>
      <path class="st2" d="M467.42,90.98c-.25,0-.41.06-.49.19s0,.28.22.46l1.09,1.09-3.04,3.04c-.98-.87-1.65-1.7-2.01-2.47-.36-.77-.55-1.56-.55-2.36,0-1.34.41-2.39,1.22-3.15.82-.76,1.91-1.14,3.29-1.14h5.33v4.35h-5.06Z"/>
      <path class="st2" d="M476.11,122.38v-24.44h5.27v24.44h-5.27Z"/>
      <path class="st2" d="M509.95,110.1c0,1.7-.28,3.31-.84,4.83-.56,1.52-1.37,2.87-2.42,4.04-1.05,1.18-2.32,2.11-3.8,2.8-1.49.69-3.14,1.03-4.94,1.03s-3.46-.33-4.94-1.01c-1.48-.67-2.76-1.58-3.83-2.74-1.07-1.16-1.9-2.51-2.5-4.05-.6-1.54-.9-3.17-.9-4.91,0-.11.01-.24.03-.38s.05-.49.08-1.03h12.98v4.78h-7.33c.51,1.3,1.32,2.37,2.45,3.21,1.12.83,2.44,1.25,3.96,1.25.98,0,1.89-.2,2.74-.6.85-.4,1.6-.94,2.23-1.63.63-.68,1.12-1.51,1.46-2.47s.52-2,.52-3.12-.17-2.22-.52-3.18-.82-1.79-1.44-2.5c-.61-.71-1.35-1.25-2.2-1.63-.85-.38-1.79-.57-2.8-.57-1.38,0-2.67.41-3.88,1.22-1.21.82-2.24,2.15-3.07,3.99l-4.73-1.9c1.16-2.61,2.74-4.63,4.75-6.06s4.32-2.15,6.93-2.15c1.88,0,3.57.36,5.05,1.06,1.48.7,2.74,1.65,3.77,2.82,1.03,1.18,1.82,2.53,2.36,4.08.55,1.54.82,3.14.82,4.81Z"/>
      <path class="st2" d="M532.33,102.01c.98,1.38,1.46,3.04,1.46,5v15.37h-5.05v-6.84c0-1.45-.51-2.56-1.52-3.34s-2.25-1.17-3.69-1.17c-1.34,0-2.51.38-3.5,1.14-1,.76-1.49,1.83-1.49,3.21,0,.61.18,1.23.55,1.84.36.62,1.1,1.38,2.23,2.28l-3.59,3.58c-1.52-1.23-2.6-2.47-3.23-3.72-.64-1.25-.95-2.58-.95-3.99s.27-2.69.82-3.83c.54-1.14,1.28-2.11,2.2-2.93s1.99-1.44,3.21-1.88,2.47-.65,3.77-.65c.91,0,1.85.12,2.85.36,1,.23,1.8.63,2.42,1.17v-.92c0-1.38-.51-2.41-1.55-3.09s-2.31-1.03-3.83-1.03c-1.63,0-2.86.38-3.69,1.14-.84.76-1.36,1.9-1.58,3.42h-5c.15-1.74.55-3.21,1.2-4.42.65-1.21,1.46-2.19,2.42-2.94s2.02-1.28,3.18-1.6c1.16-.33,2.32-.49,3.48-.49.83,0,1.66.08,2.5.25.83.16,1.65.44,2.44.84l3.21-3.47,3.86,3.36-3.09,3.36Z"/>
      <path class="st2" d="M572.9,122.38h-5.27v-14.77c0-.69-.15-1.34-.43-1.96-.29-.61-.68-1.15-1.17-1.6-.49-.46-1.06-.82-1.71-1.09-.65-.27-1.36-.41-2.11-.41s-1.48.14-2.15.41c-.67.27-1.25.63-1.74,1.09-.49.45-.87.99-1.14,1.6-.28.61-.41,1.27-.41,1.96h5.43v4.83h-5.43v9.94h-5.27v-14.77c0-1.37.28-2.67.84-3.88.56-1.21,1.33-2.26,2.31-3.15.98-.89,2.11-1.6,3.4-2.12,1.28-.52,2.67-.79,4.15-.79s2.82.26,4.13.79,2.44,1.23,3.42,2.12c.98.88,1.75,1.93,2.31,3.15.56,1.21.84,2.51.84,3.88v14.77Z"/>
      <path class="st2" d="M596.2,113.9c0,1.48-.28,2.78-.84,3.88-.56,1.1-1.3,2.02-2.23,2.74-.92.72-1.96,1.27-3.09,1.65s-2.27.57-3.39.57-2.17-.16-3.26-.49c-1.09-.33-2.08-.84-2.96-1.55-.88-.7-1.66-1.61-2.31-2.71-.65-1.1-1.09-2.44-1.3-3.99l4.89-1.63c.29,2.17.88,3.63,1.76,4.37.88.74,1.93,1.11,3.12,1.11,1.3,0,2.39-.36,3.26-1.09.87-.72,1.3-1.68,1.3-2.88,0-.54-.22-1.01-.65-1.38-.43-.38-1.14-.72-2.11-1.01-.98-.25-2.1-.5-3.37-.73-1.27-.24-2.47-.59-3.61-1.06-1.14-.47-2.11-1.09-2.91-1.85-.79-.76-1.19-1.79-1.19-3.09,0-1.23.27-2.32.81-3.26.55-.94,1.25-1.71,2.12-2.31.87-.6,1.83-1.05,2.88-1.36,1.05-.31,2.08-.46,3.1-.46.94,0,1.89.11,2.85.33.96.22,1.88.59,2.77,1.11.89.52,1.71,1.22,2.45,2.09.74.87,1.37,1.96,1.87,3.26l-4.72,1.74c-.62-1.45-1.35-2.42-2.2-2.93-.85-.51-1.83-.76-2.96-.76-1.3,0-2.28.26-2.94.79-.65.52-.98,1.1-.98,1.71,0,.4.22.66.65.79s.96.28,1.57.46c1.16.29,2.42.58,3.77.87,1.36.29,2.62.7,3.78,1.25,1.16.55,2.12,1.27,2.9,2.17.78.91,1.17,2.12,1.17,3.64Z"/>
      <path class="st2" d="M576.21,94.68v-4.62h15.37v-3.26h4.62v7.87h-19.99Z"/>
      <path class="st2" d="M601.14,122.38v-24.44h5.27v24.44h-5.27Z"/>
      <path class="st2" d="M634.98,110.1c0,1.7-.28,3.31-.84,4.83-.56,1.52-1.37,2.87-2.42,4.04-1.05,1.18-2.32,2.11-3.8,2.8-1.49.69-3.14,1.03-4.94,1.03s-3.46-.33-4.94-1.01c-1.48-.67-2.76-1.58-3.83-2.74-1.07-1.16-1.9-2.51-2.5-4.05-.6-1.54-.9-3.17-.9-4.91,0-.11.01-.24.03-.38s.05-.49.08-1.03h12.98v4.78h-7.33c.51,1.3,1.32,2.37,2.45,3.21,1.12.83,2.44,1.25,3.96,1.25.98,0,1.89-.2,2.74-.6.85-.4,1.6-.94,2.23-1.63.63-.68,1.12-1.51,1.46-2.47s.52-2,.52-3.12-.17-2.22-.52-3.18-.82-1.79-1.44-2.5c-.61-.71-1.35-1.25-2.2-1.63-.85-.38-1.79-.57-2.8-.57-1.38,0-2.67.41-3.88,1.22s-2.24,2.15-3.07,3.99l-4.73-1.9c1.16-2.61,2.74-4.63,4.75-6.06,2.01-1.43,4.32-2.15,6.93-2.15,1.88,0,3.57.36,5.05,1.06s2.74,1.65,3.77,2.82c1.03,1.18,1.82,2.53,2.36,4.08.55,1.54.82,3.14.82,4.81Z"/>
      <path class="st2" d="M660.02,122.38h-5.27v-15.7c0-1.38-.46-2.44-1.36-3.18s-1.99-1.11-3.26-1.11c-.83,0-1.62.16-2.36.49-.75.33-1.4.77-1.99,1.34-.58.56-1.04,1.2-1.38,1.92-.34.73-.51,1.49-.51,2.28v13.96h-5.27v-24.5h5.27v2.28c1.99-1.78,4.09-2.66,6.3-2.66,1.23,0,2.43.19,3.61.57,1.18.38,2.23.96,3.15,1.74.92.78,1.66,1.74,2.23,2.88.56,1.14.84,2.47.84,3.99v15.7Z"/>
      <path class="st2" d="M638.95,94.68v-4.62h16.45v-3.26h4.62v7.87h-21.07Z"/>
      <path class="st2" d="M689.62,115.48c0,1.02-.2,1.96-.59,2.82-.4.87-.95,1.63-1.66,2.28-.7.65-1.52,1.16-2.44,1.52-.92.36-1.91.54-2.96.54-1.96,0-3.64-.59-5.05-1.79-1.41,1.2-3.09,1.79-5.05,1.79-1.05,0-2.05-.18-2.99-.54s-1.76-.87-2.47-1.52c-.7-.65-1.26-1.41-1.66-2.28-.4-.87-.6-1.81-.6-2.82v-17.54h5.27v17.54c0,.62.22,1.14.68,1.58.45.43,1.04.65,1.76.65s1.26-.22,1.71-.65c.45-.43.68-.96.68-1.58v-17.54h5.27v17.54c0,.62.23,1.14.68,1.58.46.43,1.04.65,1.76.65s1.27-.22,1.74-.65c.47-.43.71-.96.71-1.58v-28.46h5.21v28.46Z"/>
      <path class="st2" d="M726.88,107.28c0,1.19-.22,2.3-.65,3.31l-4.62,11.79h-4.89l-5.27-14.39h5.49l2.28,6.3,2.07-5.33c.22-.58.32-1.14.32-1.68,0-.65-.14-1.26-.41-1.82s-.63-1.06-1.09-1.49c-.45-.43-1-.77-1.63-1.03-.64-.25-1.31-.38-2.04-.38-.83,0-1.55.15-2.14.46-.6.31-1.11.72-1.52,1.22-.42.5-.75,1.09-.98,1.74s-.41,1.3-.51,1.96h-5.27c.15-1.63.52-3.09,1.14-4.37.61-1.29,1.38-2.36,2.31-3.23.93-.87,1.98-1.54,3.18-2.01,1.19-.47,2.46-.7,3.8-.7,1.45,0,2.81.25,4.08.76s2.37,1.19,3.31,2.06c.94.87,1.69,1.89,2.23,3.07.54,1.18.81,2.44.81,3.78Z"/>
      <path class="st2" d="M729.21,89.95c0,1.34-.47,2.48-1.41,3.42-.94.94-2.08,1.41-3.42,1.41s-2.48-.47-3.42-1.41c-.94-.94-1.41-2.08-1.41-3.42s.47-2.48,1.41-3.42c.94-.94,2.08-1.41,3.42-1.41s2.48.47,3.42,1.41c.94.94,1.41,2.08,1.41,3.42ZM725.79,90c0-.4-.14-.74-.41-1.03-.28-.29-.61-.43-1.01-.43s-.74.14-1.03.43-.43.63-.43,1.03.15.74.43,1.01c.29.27.64.41,1.03.41s.73-.14,1.01-.41c.27-.27.41-.6.41-1.01ZM747.03,122.38h-5.27v-15.26c0-3.15-1.52-4.73-4.56-4.73-.76,0-1.5.15-2.23.46-.73.31-1.6.95-2.61,1.93l-3.53-3.53c1.52-1.48,2.93-2.46,4.23-2.94,1.3-.47,2.7-.7,4.18-.7,1.66,0,3.12.24,4.35.74,1.23.49,2.25,1.16,3.04,2.01.79.85,1.39,1.83,1.79,2.93.4,1.11.6,2.26.6,3.45v15.64Z"/>
      <path class="st2" d="M773.42,122.38h-5.27v-13.96c0-1.74-.62-3.17-1.85-4.29-1.23-1.12-2.88-1.69-4.94-1.69-1.92,0-3.57.69-4.94,2.07l1.3,1.41v16.46h-5.27v-14.77l-2.61-2.77c1.34-2.28,3-4.06,4.97-5.35,1.98-1.29,4.15-1.93,6.54-1.93,1.74,0,3.34.27,4.81.82,1.47.54,2.74,1.29,3.83,2.25s1.93,2.11,2.53,3.45c.59,1.34.9,2.79.9,4.35v13.96Z"/>
      <path class="st2" d="M762.67,94.68c-1.3,0-2.4-.46-3.29-1.39-.88-.92-1.33-2-1.33-3.23v-3.04h4.56v3.04h12.87v4.62h-12.82Z"/>
      <path class="st2" d="M794.93,122.43v-15.1c0-1.05-.32-1.96-.95-2.72-.64-.76-1.42-1.32-2.36-1.68-.94-.37-1.97-.51-3.07-.43-1.11.07-2.12.41-3.07,1-.94.6-1.73,1.49-2.36,2.67-.64,1.18-.95,2.67-.95,4.48,0,2.21.49,3.95,1.46,5.21.98,1.27,2.23,1.9,3.75,1.9.4,0,.78-.08,1.17-.24.38-.16.84-.54,1.38-1.11l3.37,3.42c-1.09,1.12-2.08,1.88-2.99,2.26-.91.38-1.88.57-2.93.57-1.74,0-3.27-.31-4.59-.95-1.32-.64-2.43-1.5-3.32-2.61-.88-1.1-1.55-2.38-1.98-3.83-.43-1.45-.65-2.98-.65-4.62,0-2.28.36-4.23,1.09-5.87.73-1.63,1.66-2.98,2.82-4.04,1.16-1.07,2.49-1.85,4-2.36,1.5-.51,3.01-.76,4.53-.76,1.34,0,2.67.22,4,.65,1.32.43,2.5,1.06,3.53,1.88,1.03.82,1.87,1.82,2.5,3.02.64,1.19.95,2.55.95,4.07v15.21h-5.33Z"/>
    </g>
    <g>
      <g>
        <path class="st2" d="M235.35,204.59c0,2.41-1.61,4.48-4.82,6.21-3.22,1.73-7.36,2.59-12.42,2.59-8.2,0-14.84-2.65-19.9-7.96-4.99-5.47-7.48-12.7-7.48-21.71s2.61-16.24,7.84-21.71c5.23-5.47,11.78-8.2,19.66-8.2,2.33,0,4.5.22,6.51.66,2.01.44,3.74,1.04,5.19,1.81s2.59,1.65,3.44,2.65,1.27,2.07,1.27,3.2c0,1.29-.44,2.45-1.33,3.5-.89,1.05-1.97,1.57-3.26,1.57-.97,0-3.18-.52-6.63-1.57-1.77-.56-3.46-.84-5.07-.84-4.58,0-8.26,1.69-11.04,5.06-2.77,3.38-4.16,8.08-4.16,14.11s1.39,10.35,4.16,13.69c2.77,3.34,6.57,5.01,11.4,5.01,2.09,0,4.46-.48,7.12-1.45,2.57-1.05,4.3-1.57,5.19-1.57,1.13,0,2.13.48,3.01,1.45s1.33,2.13,1.33,3.5Z"/>
        <path class="st2" d="M280.34,207.83c0,1.45-.51,2.64-1.52,3.57-1.01.93-2.25,1.39-3.71,1.39-1.14,0-2.19-.32-3.16-.97-.97-.64-2.07-1.69-3.28-3.14l-17.15-21.64v17.16c0,5.48-1.81,8.22-5.43,8.22s-5.43-2.74-5.43-8.22v-40.61c0-3.06.54-5.22,1.63-6.47,1.08-1.25,3.2-1.87,6.33-1.87h10.37c6.83,0,12.04,1.55,15.62,4.65,3.58,3.1,5.37,7.31,5.37,12.63,0,4.11-1.24,7.46-3.71,10.04-2.47,2.58-6.18,4.27-11.13,5.07l11.68,13.18c2.35,2.58,3.53,4.92,3.53,7.01ZM268.16,173.59c0-5.31-3.1-7.96-9.3-7.96h-7.34v16.16h7.22c6.28,0,9.42-2.73,9.42-8.2Z"/>
        <path class="st2" d="M318.57,206.88c0,3.38-2.77,5.07-8.32,5.07h-15.37c-2.99,0-5.02-.5-6.08-1.51-1.06-1-1.59-2.95-1.59-5.85v-40.89c0-3.06.53-5.2,1.59-6.45s3.13-1.87,6.2-1.87h14.89c5.55,0,8.32,1.73,8.32,5.19s-2.77,5.19-8.32,5.19h-11.82v12.42h10.25c5.63,0,8.44,1.77,8.44,5.31s-2.82,5.06-8.44,5.06h-10.25v13.03h12.18c5.55,0,8.32,1.77,8.32,5.31Z"/>
        <path class="st2" d="M414.46,160.56c0,3.46-2.77,5.19-8.32,5.19h-5.91v38.47c0,5.47-1.85,8.2-5.55,8.2-2.01,0-3.46-.64-4.34-1.93-.89-1.29-1.33-3.38-1.33-6.27v-38.47h-5.79c-5.39,0-8.08-1.73-8.08-5.19s2.7-5.19,8.08-5.19h22.92c5.55,0,8.32,1.73,8.32,5.19Z"/>
        <path class="st2" d="M429.53,204.22c0,5.47-1.85,8.2-5.55,8.2-2.01,0-3.46-.64-4.34-1.93-.89-1.29-1.33-3.38-1.33-6.27v-41.13c0-5.63,1.89-8.44,5.67-8.44s5.55,2.82,5.55,8.44v41.13Z"/>
        <path class="st2" d="M481.16,159.96c0,.8-.32,2.25-.97,4.34l-16.77,43.9c-1.45,3.06-3.42,4.58-5.91,4.58s-4.27-1.37-5.31-4.1l-17.49-44.75c-.4-1.45-.6-2.57-.6-3.38,0-1.61.52-2.97,1.57-4.1s2.41-1.69,4.1-1.69c2.01,0,3.7,1.69,5.06,5.06l13.27,36.06,12.06-35.46c.64-2.09,1.34-3.56,2.11-4.4.76-.84,1.91-1.27,3.44-1.27,3.62,0,5.43,1.73,5.43,5.19Z"/>
        <path class="st2" d="M516.25,206.88c0,3.38-2.77,5.07-8.32,5.07h-15.37c-2.99,0-5.02-.5-6.08-1.51-1.06-1-1.59-2.95-1.59-5.85v-40.89c0-3.06.53-5.2,1.59-6.45,1.06-1.25,3.13-1.87,6.2-1.87h14.89c5.55,0,8.32,1.73,8.32,5.19s-2.77,5.19-8.32,5.19h-11.82v12.42h10.25c5.63,0,8.44,1.77,8.44,5.31s-2.82,5.06-8.44,5.06h-10.25v13.03h12.18c5.55,0,8.32,1.77,8.32,5.31Z"/>
      </g>
      <path class="st2" d="M331.58,204.25l10.27-45.17s.56-4.13,6.29-4.09c0,0,7.81-.88,8.75,4.59l12.29,46.75s1.31,4.83-2.56,6.14c0,0-5.2,1.34-7.2-6.5l-4.6-14.68s-.96-2.04-4.64-2c0,0-5.65-.14-6.37,2.58l-3.2,14.38s-1.08,5.88-4.64,6.21c0,0-6.87,2.02-4.4-8.21Z"/>
      <path class="st3" d="M350.79,171.22v-5.45c0-.68-.59-1.22-1.32-1.22s-1.32.55-1.32,1.22v5.45c0,.68.59,1.22,1.32,1.22s1.32-.55,1.32-1.22Z"/>
      <path class="st3" d="M351.34,166.45v13.55c0,1.62-.72,2.97-1.51,3.29v6.83c.11,0,.22,0,.32-.02.07,0,.14-.02.2-.03.01,0,.02,0,.03,0,.15-.02.29-.04.44-.08.08-.02.15-.04.23-.06.02,0,.04-.01.06-.02.13-.03.25-.07.38-.11.08-.02.15-.05.22-.08.03-.01.06-.02.08-.03.11-.04.23-.09.34-.14.07-.03.14-.06.21-.1.04-.02.07-.03.11-.05.11-.05.21-.11.31-.16.07-.04.14-.07.2-.11.04-.03.09-.05.13-.08.1-.06.19-.12.28-.18.06-.04.13-.08.19-.13.04-.03.09-.06.13-.09.11-.08.22-.17.33-.25.05-.04.11-.08.16-.12.02-.02.04-.03.06-.05.12-.1.24-.21.36-.31.07-.06.14-.12.2-.18.13-.12.25-.24.38-.37.06-.06.12-.12.18-.19.13-.14.26-.28.38-.42.05-.06.1-.12.15-.18.13-.16.26-.32.39-.49.03-.04.06-.09.1-.13.64-.84,1.24-1.78,1.79-2.83,0,0,0,0,0,0,.13-.3.26-.61.38-.93v-3.48c0-10.76-3.89-19.52-8.76-19.94v4.36c.79.33,1.51,1.68,1.51,3.3Z"/>
      <path class="st3" d="M340.73,183.14c.55,1.05,1.15,1.99,1.79,2.83.03.04.06.09.1.13.13.17.26.33.39.49.05.06.1.12.15.18.13.15.25.29.38.42.06.06.12.13.18.19.12.13.25.25.38.37.07.06.13.12.2.18.12.11.24.21.36.31.02.02.04.03.06.05.05.04.1.08.16.12.11.09.22.17.33.25.04.03.09.06.13.09.06.04.13.08.19.13.09.06.19.13.28.18.04.03.09.05.13.08.07.04.13.07.2.11.1.06.21.11.31.16.04.02.07.03.11.05.07.03.14.07.21.1.11.05.23.1.34.14.03.01.06.02.09.03.07.03.15.05.23.08.13.04.25.08.38.11.02,0,.04.01.06.02.08.02.15.04.23.06.14.03.29.05.44.08.01,0,.02,0,.03,0,.07,0,.14.02.2.03.11.01.21.01.32.02v-6.83c-.79-.33-1.51-1.68-1.51-3.29v-13.55c0-1.62.72-2.97,1.51-3.3v-4.36c-4.87.42-8.76,9.18-8.76,19.94v3.48c.12.32.25.63.38.93Z"/>
      <path class="st0" d="M349.42,156.49v-7.32s.58-5.37-6.57-4.08c0,0-6.16.66-5.14,3.81,0,0,.57,3.93,7.56,2.22,0,0,9.9-2.79,7.28-13.25"/>
    </g>
  </g>
  <g>
    <path class="st2" d="M574.05,204.91c0,2.31-1.54,4.29-4.62,5.94-3.07,1.65-7.03,2.48-11.88,2.48-7.84,0-14.19-2.54-19.03-7.61-4.77-5.23-7.15-12.15-7.15-20.76s2.5-15.53,7.5-20.76,11.26-7.84,18.8-7.84c2.23,0,4.31.21,6.23.63,1.92.42,3.57,1,4.96,1.73,1.38.73,2.48,1.58,3.28,2.54.81.96,1.21,1.98,1.21,3.06,0,1.23-.43,2.35-1.27,3.35-.85,1-1.88,1.5-3.11,1.5-.92,0-3.04-.5-6.34-1.5-1.69-.54-3.31-.81-4.85-.81-4.38,0-7.9,1.62-10.55,4.84-2.66,3.23-3.98,7.73-3.98,13.49s1.33,9.9,3.98,13.09c2.65,3.19,6.28,4.79,10.9,4.79,2,0,4.27-.46,6.8-1.38,2.46-1,4.11-1.5,4.96-1.5,1.07,0,2.03.46,2.88,1.39.85.92,1.27,2.03,1.27,3.34Z"/>
    <path class="st2" d="M628.71,185.07c0,8.58-2.42,15.43-7.27,20.56-4.69,5.13-11,7.7-18.92,7.7s-14.18-2.56-19.03-7.69c-4.85-5.13-7.27-11.99-7.27-20.56s2.42-15.47,7.27-20.68c4.84-5.21,11.19-7.81,19.03-7.81s13.96,2.64,18.8,7.92c4.92,5.13,7.38,11.99,7.38,20.56ZM616.83,185.13c0-5.86-1.29-10.43-3.86-13.71s-6.05-4.92-10.44-4.92-7.88,1.66-10.49,4.98c-2.62,3.31-3.92,7.87-3.92,13.65s1.31,9.99,3.92,13.3c2.61,3.32,6.11,4.98,10.49,4.98s7.67-1.64,10.32-4.91c2.65-3.28,3.98-7.73,3.98-13.36Z"/>
    <path class="st2" d="M648.32,205.6c0,1.92-.56,3.52-1.67,4.79-1.12,1.27-2.56,1.9-4.33,1.9s-3.25-.64-4.44-1.9-1.79-2.86-1.79-4.79.61-3.46,1.84-4.84c1.23-1.39,2.69-2.08,4.38-2.08s3.12.65,4.27,1.96c1.15,1.31,1.73,2.96,1.73,4.96Z"/>
    <path class="st2" d="M670.58,204.56c0,.69-.35,1.88-1.04,3.57l-6.11,11.19c-1.38,2.54-2.96,3.81-4.73,3.81-1.15,0-2.12-.38-2.88-1.15s-1.15-1.73-1.15-2.88c0-1,.35-2.19,1.04-3.58l6.23-11.07c1.23-2.61,2.77-3.92,4.61-3.92,1.08,0,2.02.37,2.83,1.1s1.21,1.71,1.21,2.94Z"/>
    <path class="st2" d="M711.98,207.1c0,3.23-2.65,4.84-7.96,4.84h-14.69c-2.86,0-4.8-.48-5.81-1.44-1.02-.96-1.52-2.83-1.52-5.6v-39.67c0-5.38,1.73-8.07,5.19-8.07s5.19,2.69,5.19,8.07v36.79h11.65c5.31,0,7.96,1.69,7.96,5.07Z"/>
    <path class="st2" d="M747.27,162.81c0,3.31-2.65,4.96-7.96,4.96h-5.65v36.79c0,5.23-1.77,7.84-5.3,7.84-1.92,0-3.31-.61-4.15-1.84s-1.27-3.23-1.27-6v-36.79h-5.54c-5.15,0-7.73-1.65-7.73-4.96s2.57-4.96,7.73-4.96h21.91c5.31,0,7.96,1.65,7.96,4.96Z"/>
    <path class="st2" d="M795.83,184.27c0,4.23-.6,8.05-1.79,11.48s-2.9,6.32-5.13,8.71c-2.23,2.38-4.96,4.23-8.19,5.54-3.23,1.31-6.88,1.96-10.96,1.96h-11.53c-2.92,0-4.9-.48-5.94-1.44-1.04-.96-1.56-2.83-1.56-5.6v-39.1c0-2.92.52-4.98,1.56-6.17,1.04-1.19,3.06-1.79,6.05-1.79h10.15c3.54,0,6.58.29,9.11.86s4.84,1.56,6.92,2.94c3.54,2.15,6.31,5.25,8.31,9.28,2,4.04,3,8.48,3,13.32ZM784.06,184.27c0-11-5.48-16.49-16.43-16.49h-6.52v34.25h6.75c10.8,0,16.2-5.92,16.2-17.76Z"/>
    <path class="st2" d="M815.43,205.6c0,1.92-.56,3.52-1.67,4.79-1.12,1.27-2.56,1.9-4.33,1.9s-3.25-.64-4.44-1.9-1.79-2.86-1.79-4.79.61-3.46,1.84-4.84c1.23-1.39,2.69-2.08,4.38-2.08s3.12.65,4.27,1.96c1.15,1.31,1.73,2.96,1.73,4.96Z"/>
  </g>
</svg>