<?xml version="1.0" encoding="UTF-8"?>
<svg id="Layer_1" xmlns="http://www.w3.org/2000/svg" version="1.1" viewBox="0 0 500 500">
  <!-- Generator: Adobe Illustrator 29.8.4, SVG Export Plug-In . SVG Version: 2.1.1 Build 6)  -->
  <defs>
    <style>
      .st0 {
        fill: none;
        stroke: #fff;
        stroke-linecap: round;
        stroke-linejoin: round;
        stroke-width: 19.68px;
      }

      .st1 {
        fill: #231f20;
      }
    </style>
  </defs>
  <g>
    <path class="st0" d="M209.96,194.82c0,7.82-5.21,14.53-15.63,20.13-10.42,5.6-23.84,8.4-40.24,8.4-26.57,0-48.06-8.59-64.48-25.79-16.16-17.71-24.23-41.16-24.23-70.34s8.46-52.61,25.4-70.33c16.93-17.72,38.16-26.57,63.69-26.57,7.55,0,14.59.71,21.1,2.15,6.51,1.44,12.12,3.38,16.8,5.86,4.69,2.48,8.4,5.34,11.14,8.59,2.74,3.26,4.1,6.71,4.1,10.35,0,4.17-1.44,7.95-4.3,11.33-2.87,3.39-6.39,5.08-10.55,5.08-3.13,0-10.29-1.69-21.49-5.08-5.73-1.82-11.2-2.73-16.41-2.73-14.85,0-26.77,5.47-35.75,16.41-8.99,10.94-13.48,26.18-13.48,45.72s4.49,33.55,13.48,44.35c8.98,10.81,21.3,16.22,36.93,16.22,6.77,0,14.46-1.57,23.05-4.69,8.34-3.38,13.93-5.08,16.8-5.08,3.64,0,6.9,1.56,9.77,4.69,2.87,3.12,4.3,6.91,4.3,11.32Z"/>
    <path class="st1" d="M209.96,194.82c0,7.82-5.21,14.53-15.63,20.13-10.42,5.6-23.84,8.4-40.24,8.4-26.57,0-48.06-8.59-64.48-25.79-16.16-17.71-24.23-41.16-24.23-70.34s8.46-52.61,25.4-70.33c16.93-17.72,38.16-26.57,63.69-26.57,7.55,0,14.59.71,21.1,2.15,6.51,1.44,12.12,3.38,16.8,5.86,4.69,2.48,8.4,5.34,11.14,8.59,2.74,3.26,4.1,6.71,4.1,10.35,0,4.17-1.44,7.95-4.3,11.33-2.87,3.39-6.39,5.08-10.55,5.08-3.13,0-10.29-1.69-21.49-5.08-5.73-1.82-11.2-2.73-16.41-2.73-14.85,0-26.77,5.47-35.75,16.41-8.99,10.94-13.48,26.18-13.48,45.72s4.49,33.55,13.48,44.35c8.98,10.81,21.3,16.22,36.93,16.22,6.77,0,14.46-1.57,23.05-4.69,8.34-3.38,13.93-5.08,16.8-5.08,3.64,0,6.9,1.56,9.77,4.69,2.87,3.12,4.3,6.91,4.3,11.32Z"/>
  </g>
  <g>
    <path class="st0" d="M414.94,412.62c0,17.15-6.03,30.96-18.09,41.39-12.06,10.44-28.15,15.66-48.29,15.66-15.66,0-28.71-2.37-39.15-7.09-10.44-4.72-15.66-10.81-15.66-18.27,0-10.44,5.72-15.66,17.15-15.66,3.97,0,10.44,1.62,19.39,4.84,9.94,2.98,18.02,4.48,24.24,4.48s11.93-2.11,16.4-6.34c4.48-4.23,6.71-9.32,6.71-15.29,0-7.45-2.86-13.29-8.58-17.53-3.73-2.98-12.06-6.46-24.98-10.44-16.4-4.97-28.47-10.81-36.17-17.53-7.96-7.45-11.93-17.65-11.93-30.57,0-15.91,5.71-28.83,17.15-38.78,11.43-10.44,26.35-15.66,44.75-15.66,13.42,0,24.36,2.24,32.81,6.71,8.45,4.48,12.68,10.2,12.68,17.15,0,9.45-5.1,14.17-15.29,14.17-2.24,0-7.33-.98-15.29-2.97-7.96-1.99-13.43-2.98-16.4-2.98-7.21,0-12.86,1.67-16.97,5.03-4.1,3.36-6.15,7.78-6.15,13.24,0,7.21,4.6,12.8,13.79,16.78,1.74.75,4.29,1.75,7.65,2.98,3.35,1.25,7.64,2.74,12.86,4.48,15.9,5.22,27.78,11.99,35.61,20.32,7.83,8.33,11.75,18.96,11.75,31.88Z"/>
    <path class="st1" d="M414.94,412.62c0,17.15-6.03,30.96-18.09,41.39-12.06,10.44-28.15,15.66-48.29,15.66-15.66,0-28.71-2.37-39.15-7.09-10.44-4.72-15.66-10.81-15.66-18.27,0-10.44,5.72-15.66,17.15-15.66,3.97,0,10.44,1.62,19.39,4.84,9.94,2.98,18.02,4.48,24.24,4.48s11.93-2.11,16.4-6.34c4.48-4.23,6.71-9.32,6.71-15.29,0-7.45-2.86-13.29-8.58-17.53-3.73-2.98-12.06-6.46-24.98-10.44-16.4-4.97-28.47-10.81-36.17-17.53-7.96-7.45-11.93-17.65-11.93-30.57,0-15.91,5.71-28.83,17.15-38.78,11.43-10.44,26.35-15.66,44.75-15.66,13.42,0,24.36,2.24,32.81,6.71,8.45,4.48,12.68,10.2,12.68,17.15,0,9.45-5.1,14.17-15.29,14.17-2.24,0-7.33-.98-15.29-2.97-7.96-1.99-13.43-2.98-16.4-2.98-7.21,0-12.86,1.67-16.97,5.03-4.1,3.36-6.15,7.78-6.15,13.24,0,7.21,4.6,12.8,13.79,16.78,1.74.75,4.29,1.75,7.65,2.98,3.35,1.25,7.64,2.74,12.86,4.48,15.9,5.22,27.78,11.99,35.61,20.32,7.83,8.33,11.75,18.96,11.75,31.88Z"/>
  </g>
  <g>
    <path class="st0" d="M331.96,320.47c0,4.49-7.36,3.45-10.49,6.31-3.14,2.86-3.35,5.75-7.86,5.75-3.51,0-8.79,1.82-11.8-.18-3.01-1.99-18.6-21.96-22.36-26.45l-53.02-66.89v63.95c0,16.94-5.59,29.05-16.78,29.05s-16.78-10.8-16.78-27.74v-137.75c0-9.46,1.68-16.13,5.04-19.99,3.35-3.85,9.88-5.79,19.57-5.79h32.07c21.12,0,37.22,4.79,48.29,14.39,11.06,9.59,16.59,22.61,16.59,39.04,0,12.71-3.83,23.05-11.47,31.03-7.65,7.97-19.12,13.19-34.41,15.68l36.1,40.73c7.26,7.98,27.31,32.38,27.31,38.85ZM277.89,197.42c0-16.4-9.59-24.61-28.76-24.61h-22.7v49.97h22.33c19.42,0,29.13-8.45,29.13-25.36Z"/>
    <path class="st1" d="M331.96,320.47c0,4.49-7.36,3.45-10.49,6.31-3.14,2.86-3.35,5.75-7.86,5.75-3.51,0-8.79,1.82-11.8-.18-3.01-1.99-18.6-21.96-22.36-26.45l-53.02-66.89v63.95c0,16.94-5.59,29.05-16.78,29.05s-16.78-10.8-16.78-27.74v-137.75c0-9.46,1.68-16.13,5.04-19.99,3.35-3.85,9.88-5.79,19.57-5.79h32.07c21.12,0,37.22,4.79,48.29,14.39,11.06,9.59,16.59,22.61,16.59,39.04,0,12.71-3.83,23.05-11.47,31.03-7.65,7.97-19.12,13.19-34.41,15.68l36.1,40.73c7.26,7.98,27.31,32.38,27.31,38.85ZM277.89,197.42c0-16.4-9.59-24.61-28.76-24.61h-22.7v49.97h22.33c19.42,0,29.13-8.45,29.13-25.36Z"/>
  </g>
</svg>